<svg width="79" height="45" viewBox="0 0 79 45" fill="none" xmlns="http://www.w3.org/2000/svg">
<g filter="url(#filter0_d_44_1697)">
<path d="M5.82543 14L4.08728 2.89037L14 8.21918L8.94181 9.7397L5.82543 14Z" fill="#A2B87E"/>
</g>
<mask id="path-2-inside-1_44_1697" fill="white">
<path d="M13 16.5404C13 15.6897 13.6897 15 14.5404 15H64C72.2843 15 79 21.7157 79 30C79 38.2843 72.2843 45 64 45H31.4851C21.2761 45 13 36.7239 13 26.5149V16.5404Z"/>
</mask>
<path d="M13 16.5404C13 15.6897 13.6897 15 14.5404 15H64C72.2843 15 79 21.7157 79 30C79 38.2843 72.2843 45 64 45H31.4851C21.2761 45 13 36.7239 13 26.5149V16.5404Z" fill="#A2B87E"/>
<path d="M13 16.5404C13 15.6897 13.6897 15 14.5404 15H64C72.2843 15 79 21.7157 79 30C79 38.2843 72.2843 45 64 45H31.4851C21.2761 45 13 36.7239 13 26.5149V16.5404Z" stroke="#95AE6D" stroke-width="4" mask="url(#path-2-inside-1_44_1697)"/>
<path d="M31.0724 36.1165C30.1918 36.1165 29.4105 35.9957 28.7287 35.7543C28.0497 35.5156 27.4773 35.1648 27.0114 34.7017C26.5455 34.2358 26.1918 33.6662 25.9503 32.9929C25.7088 32.3196 25.5881 31.5511 25.5881 30.6875C25.5881 29.8466 25.7102 29.0909 25.9545 28.4205C26.1989 27.75 26.554 27.179 27.0199 26.7074C27.4886 26.233 28.0582 25.8707 28.7287 25.6207C29.3991 25.3707 30.1605 25.2457 31.0128 25.2457C31.8281 25.2457 32.5469 25.3736 33.169 25.6293C33.7912 25.8849 34.3139 26.2358 34.7372 26.6818C35.1634 27.1278 35.4844 27.6392 35.7003 28.2159C35.9162 28.7926 36.0241 29.402 36.0241 30.044C36.0241 30.4929 35.9957 30.9318 35.9389 31.3608C35.8821 31.7869 35.777 32.1733 35.6236 32.5199C35.473 32.8636 35.2543 33.1392 34.9673 33.3466C34.6832 33.5511 34.3139 33.6577 33.8594 33.6662C33.6179 33.6747 33.3835 33.6463 33.1562 33.581C32.929 33.5156 32.7358 33.4105 32.5767 33.2656C32.4176 33.1179 32.321 32.9304 32.2869 32.7031H32.2358C32.1676 32.8707 32.054 33.027 31.8949 33.1719C31.7358 33.3139 31.5327 33.4276 31.2855 33.5128C31.0412 33.5952 30.7571 33.6293 30.4332 33.6151C30.0753 33.6009 29.7528 33.5199 29.4659 33.3722C29.179 33.2244 28.9332 33.0199 28.7287 32.7585C28.527 32.4972 28.3722 32.1875 28.2642 31.8295C28.1563 31.4716 28.1023 31.0739 28.1023 30.6364C28.1023 30.2159 28.1634 29.8395 28.2855 29.5071C28.4077 29.1719 28.5739 28.8835 28.7841 28.642C28.9972 28.3977 29.2415 28.2045 29.517 28.0625C29.7926 27.9205 30.0838 27.831 30.3906 27.794C30.6889 27.7599 30.9631 27.7685 31.2131 27.8196C31.4631 27.8707 31.6705 27.9489 31.8352 28.054C32.0028 28.1591 32.108 28.2741 32.1506 28.3991H32.206V27.9219H33.2543V31.8764C33.2543 32.1009 33.3125 32.2912 33.429 32.4474C33.5483 32.6037 33.7173 32.6818 33.9361 32.6818C34.1946 32.6818 34.3963 32.5866 34.5412 32.3963C34.6889 32.206 34.7926 31.9134 34.8523 31.5185C34.9148 31.1236 34.946 30.6179 34.946 30.0014C34.946 29.5696 34.8878 29.1634 34.7713 28.7827C34.6577 28.3991 34.4886 28.0526 34.2642 27.7429C34.0426 27.4304 33.7699 27.1619 33.446 26.9375C33.1222 26.7131 32.7528 26.5398 32.3381 26.4176C31.9261 26.2955 31.4702 26.2344 30.9702 26.2344C30.2912 26.2344 29.6875 26.3395 29.1591 26.5497C28.6307 26.7571 28.1847 27.0568 27.821 27.4489C27.4602 27.8409 27.1861 28.3111 26.9986 28.8594C26.8139 29.4048 26.7216 30.017 26.7216 30.696C26.7216 31.4034 26.8168 32.0312 27.0071 32.5795C27.1974 33.125 27.4787 33.5852 27.8509 33.9602C28.223 34.3352 28.6832 34.6207 29.2315 34.8168C29.7798 35.0099 30.4119 35.1065 31.1278 35.1065C31.446 35.1065 31.7585 35.0781 32.0653 35.0213C32.3722 34.9673 32.6449 34.9062 32.8835 34.8381C33.125 34.767 33.3054 34.7102 33.4247 34.6676L33.723 35.6009C33.5469 35.6832 33.3125 35.7642 33.0199 35.8438C32.7301 35.9233 32.4148 35.9886 32.0739 36.0398C31.7358 36.0909 31.402 36.1165 31.0724 36.1165ZM30.6804 32.571C31.0497 32.571 31.3466 32.4972 31.571 32.3494C31.7983 32.2017 31.9616 31.9815 32.0611 31.6889C32.1634 31.3935 32.2145 31.0241 32.2145 30.581C32.2116 30.1491 32.1563 29.8054 32.0483 29.5497C31.9432 29.2912 31.7784 29.1065 31.554 28.9957C31.3324 28.8821 31.0469 28.8253 30.6974 28.8253C30.3764 28.8253 30.1023 28.9034 29.875 29.0597C29.6506 29.2159 29.4787 29.4276 29.3594 29.6946C29.2429 29.9616 29.1832 30.2585 29.1804 30.5852C29.1832 30.929 29.2315 31.2528 29.3253 31.5568C29.4219 31.858 29.5781 32.1023 29.794 32.2898C30.0128 32.4773 30.3082 32.571 30.6804 32.571ZM44.8207 29.1108H43.4911C43.44 28.8267 43.3448 28.5767 43.2056 28.3608C43.0664 28.1449 42.896 27.9616 42.6942 27.8111C42.4925 27.6605 42.2667 27.5469 42.0167 27.4702C41.7695 27.3935 41.5067 27.3551 41.2283 27.3551C40.7255 27.3551 40.2752 27.4815 39.8775 27.7344C39.4826 27.9872 39.1701 28.358 38.94 28.8466C38.7127 29.3352 38.5991 29.9318 38.5991 30.6364C38.5991 31.3466 38.7127 31.946 38.94 32.4347C39.1701 32.9233 39.484 33.2926 39.8817 33.5426C40.2795 33.7926 40.7269 33.9176 41.2241 33.9176C41.4996 33.9176 41.761 33.8807 42.0082 33.8068C42.2582 33.7301 42.484 33.6179 42.6857 33.4702C42.8874 33.3224 43.0579 33.142 43.1971 32.929C43.3391 32.7131 43.4371 32.4659 43.4911 32.1875L44.8207 32.1918C44.7496 32.6207 44.6119 33.0156 44.4073 33.3764C44.2056 33.7344 43.9457 34.044 43.6275 34.3054C43.3121 34.5639 42.9513 34.7642 42.5451 34.9062C42.1388 35.0483 41.6957 35.1193 41.2156 35.1193C40.4599 35.1193 39.7866 34.9403 39.1957 34.5824C38.6048 34.2216 38.1388 33.706 37.7979 33.0355C37.4599 32.3651 37.2908 31.5653 37.2908 30.6364C37.2908 29.7045 37.4613 28.9048 37.8022 28.2372C38.1431 27.5668 38.609 27.0526 39.1999 26.6946C39.7908 26.3338 40.4627 26.1534 41.2156 26.1534C41.6786 26.1534 42.1104 26.2202 42.511 26.3537C42.9144 26.4844 43.2766 26.6776 43.5977 26.9332C43.9187 27.1861 44.1843 27.4957 44.3945 27.8622C44.6048 28.2259 44.7468 28.642 44.8207 29.1108ZM47.5682 31.1136V35H46.294V26.2727H47.5511V29.5199H47.6321C47.7855 29.1676 48.0199 28.8878 48.3352 28.6804C48.6506 28.473 49.0625 28.3693 49.571 28.3693C50.0199 28.3693 50.4119 28.4616 50.7472 28.6463C51.0852 28.831 51.3466 29.1065 51.5312 29.473C51.7188 29.8366 51.8125 30.2912 51.8125 30.8366V35H50.5384V30.9901C50.5384 30.5099 50.4148 30.1378 50.1676 29.8736C49.9205 29.6065 49.5767 29.473 49.1364 29.473C48.8352 29.473 48.5653 29.5369 48.3267 29.6648C48.0909 29.7926 47.9048 29.9801 47.7685 30.2273C47.6349 30.4716 47.5682 30.767 47.5682 31.1136ZM53.5128 35V28.4545H54.7443V29.4943H54.8125C54.9318 29.142 55.142 28.8651 55.4432 28.6634C55.7472 28.4588 56.0909 28.3565 56.4744 28.3565C56.554 28.3565 56.6477 28.3594 56.7557 28.3651C56.8665 28.3707 56.9531 28.3778 57.0156 28.3864V29.6051C56.9645 29.5909 56.8736 29.5753 56.7429 29.5582C56.6122 29.5384 56.4815 29.5284 56.3509 29.5284C56.0497 29.5284 55.7813 29.5923 55.5455 29.7202C55.3125 29.8452 55.1278 30.0199 54.9915 30.2443C54.8551 30.4659 54.7869 30.7187 54.7869 31.0028V35H53.5128ZM58.1183 35V28.4545H59.3924V35H58.1183ZM58.7617 27.4446C58.5401 27.4446 58.3498 27.3707 58.1907 27.223C58.0344 27.0724 57.9563 26.8935 57.9563 26.6861C57.9563 26.4759 58.0344 26.2969 58.1907 26.1491C58.3498 25.9986 58.5401 25.9233 58.7617 25.9233C58.9833 25.9233 59.1722 25.9986 59.3285 26.1491C59.4876 26.2969 59.5671 26.4759 59.5671 26.6861C59.5671 26.8935 59.4876 27.0724 59.3285 27.223C59.1722 27.3707 58.9833 27.4446 58.7617 27.4446ZM66.0114 30.0526L64.8565 30.2571C64.8082 30.1094 64.7315 29.9687 64.6264 29.8352C64.5241 29.7017 64.3849 29.5923 64.2088 29.5071C64.0327 29.4219 63.8125 29.3793 63.5483 29.3793C63.1875 29.3793 62.8864 29.4602 62.6449 29.6222C62.4034 29.7812 62.2827 29.9872 62.2827 30.2401C62.2827 30.4588 62.3636 30.6349 62.5256 30.7685C62.6875 30.902 62.9489 31.0114 63.3097 31.0966L64.3494 31.3352C64.9517 31.4744 65.4006 31.6889 65.696 31.9787C65.9915 32.2685 66.1392 32.6449 66.1392 33.108C66.1392 33.5 66.0256 33.8494 65.7983 34.1562C65.5739 34.4602 65.2599 34.6989 64.8565 34.8722C64.456 35.0455 63.9915 35.1321 63.4631 35.1321C62.7301 35.1321 62.1321 34.9759 61.669 34.6634C61.206 34.348 60.9219 33.9006 60.8168 33.321L62.0483 33.1335C62.125 33.4545 62.2827 33.6974 62.5213 33.8622C62.7599 34.0241 63.071 34.1051 63.4545 34.1051C63.8722 34.1051 64.206 34.0185 64.456 33.8452C64.706 33.669 64.831 33.4545 64.831 33.2017C64.831 32.9972 64.7543 32.8253 64.6009 32.6861C64.4503 32.5469 64.2188 32.4418 63.9062 32.3707L62.7983 32.1278C62.1875 31.9886 61.7358 31.767 61.4432 31.4631C61.1534 31.1591 61.0085 30.7741 61.0085 30.3082C61.0085 29.9219 61.1165 29.5838 61.3324 29.294C61.5483 29.0043 61.8466 28.7784 62.2273 28.6165C62.608 28.4517 63.044 28.3693 63.5355 28.3693C64.2429 28.3693 64.7997 28.5227 65.206 28.8295C65.6122 29.1335 65.8807 29.5412 66.0114 30.0526Z" fill="#FEFEFE"/>
<defs>
<filter id="filter0_d_44_1697" x="2.8232" y="2.25852" width="12.4405" height="13.6371" filterUnits="userSpaceOnUse" color-interpolation-filters="sRGB">
<feFlood flood-opacity="0" result="BackgroundImageFix"/>
<feColorMatrix in="SourceAlpha" type="matrix" values="0 0 0 0 0 0 0 0 0 0 0 0 0 0 0 0 0 0 127 0" result="hardAlpha"/>
<feOffset dy="0.631858"/>
<feGaussianBlur stdDeviation="0.631858"/>
<feComposite in2="hardAlpha" operator="out"/>
<feColorMatrix type="matrix" values="0 0 0 0 0 0 0 0 0 0 0 0 0 0 0 0 0 0 0.25 0"/>
<feBlend mode="normal" in2="BackgroundImageFix" result="effect1_dropShadow_44_1697"/>
<feBlend mode="normal" in="SourceGraphic" in2="effect1_dropShadow_44_1697" result="shape"/>
</filter>
</defs>
</svg>
