<svg width="73" height="45" viewBox="0 0 73 45" fill="none" xmlns="http://www.w3.org/2000/svg">
<g filter="url(#filter0_d_44_1712)">
<path d="M5.82543 14L4.08728 2.89037L14 8.21918L8.94181 9.7397L5.82543 14Z" fill="#A2B87E"/>
</g>
<mask id="path-2-inside-1_44_1712" fill="white">
<path d="M13 16.5404C13 15.6897 13.6897 15 14.5404 15H58C66.2843 15 73 21.7157 73 30C73 38.2843 66.2843 45 58 45H31.4851C21.2761 45 13 36.7239 13 26.5149V16.5404Z"/>
</mask>
<path d="M13 16.5404C13 15.6897 13.6897 15 14.5404 15H58C66.2843 15 73 21.7157 73 30C73 38.2843 66.2843 45 58 45H31.4851C21.2761 45 13 36.7239 13 26.5149V16.5404Z" fill="#A2B87E"/>
<path d="M13 16.5404C13 15.6897 13.6897 15 14.5404 15H58C66.2843 15 73 21.7157 73 30C73 38.2843 66.2843 45 58 45H31.4851C21.2761 45 13 36.7239 13 26.5149V16.5404Z" stroke="#95AE6D" stroke-width="4" mask="url(#path-2-inside-1_44_1712)"/>
<path d="M31.0724 36.1165C30.1918 36.1165 29.4105 35.9957 28.7287 35.7543C28.0497 35.5156 27.4773 35.1648 27.0114 34.7017C26.5455 34.2358 26.1918 33.6662 25.9503 32.9929C25.7088 32.3196 25.5881 31.5511 25.5881 30.6875C25.5881 29.8466 25.7102 29.0909 25.9545 28.4205C26.1989 27.75 26.554 27.179 27.0199 26.7074C27.4886 26.233 28.0582 25.8707 28.7287 25.6207C29.3991 25.3707 30.1605 25.2457 31.0128 25.2457C31.8281 25.2457 32.5469 25.3736 33.169 25.6293C33.7912 25.8849 34.3139 26.2358 34.7372 26.6818C35.1634 27.1278 35.4844 27.6392 35.7003 28.2159C35.9162 28.7926 36.0241 29.402 36.0241 30.044C36.0241 30.4929 35.9957 30.9318 35.9389 31.3608C35.8821 31.7869 35.777 32.1733 35.6236 32.5199C35.473 32.8636 35.2543 33.1392 34.9673 33.3466C34.6832 33.5511 34.3139 33.6577 33.8594 33.6662C33.6179 33.6747 33.3835 33.6463 33.1562 33.581C32.929 33.5156 32.7358 33.4105 32.5767 33.2656C32.4176 33.1179 32.321 32.9304 32.2869 32.7031H32.2358C32.1676 32.8707 32.054 33.027 31.8949 33.1719C31.7358 33.3139 31.5327 33.4276 31.2855 33.5128C31.0412 33.5952 30.7571 33.6293 30.4332 33.6151C30.0753 33.6009 29.7528 33.5199 29.4659 33.3722C29.179 33.2244 28.9332 33.0199 28.7287 32.7585C28.527 32.4972 28.3722 32.1875 28.2642 31.8295C28.1563 31.4716 28.1023 31.0739 28.1023 30.6364C28.1023 30.2159 28.1634 29.8395 28.2855 29.5071C28.4077 29.1719 28.5739 28.8835 28.7841 28.642C28.9972 28.3977 29.2415 28.2045 29.517 28.0625C29.7926 27.9205 30.0838 27.831 30.3906 27.794C30.6889 27.7599 30.9631 27.7685 31.2131 27.8196C31.4631 27.8707 31.6705 27.9489 31.8352 28.054C32.0028 28.1591 32.108 28.2741 32.1506 28.3991H32.206V27.9219H33.2543V31.8764C33.2543 32.1009 33.3125 32.2912 33.429 32.4474C33.5483 32.6037 33.7173 32.6818 33.9361 32.6818C34.1946 32.6818 34.3963 32.5866 34.5412 32.3963C34.6889 32.206 34.7926 31.9134 34.8523 31.5185C34.9148 31.1236 34.946 30.6179 34.946 30.0014C34.946 29.5696 34.8878 29.1634 34.7713 28.7827C34.6577 28.3991 34.4886 28.0526 34.2642 27.7429C34.0426 27.4304 33.7699 27.1619 33.446 26.9375C33.1222 26.7131 32.7528 26.5398 32.3381 26.4176C31.9261 26.2955 31.4702 26.2344 30.9702 26.2344C30.2912 26.2344 29.6875 26.3395 29.1591 26.5497C28.6307 26.7571 28.1847 27.0568 27.821 27.4489C27.4602 27.8409 27.1861 28.3111 26.9986 28.8594C26.8139 29.4048 26.7216 30.017 26.7216 30.696C26.7216 31.4034 26.8168 32.0312 27.0071 32.5795C27.1974 33.125 27.4787 33.5852 27.8509 33.9602C28.223 34.3352 28.6832 34.6207 29.2315 34.8168C29.7798 35.0099 30.4119 35.1065 31.1278 35.1065C31.446 35.1065 31.7585 35.0781 32.0653 35.0213C32.3722 34.9673 32.6449 34.9062 32.8835 34.8381C33.125 34.767 33.3054 34.7102 33.4247 34.6676L33.723 35.6009C33.5469 35.6832 33.3125 35.7642 33.0199 35.8438C32.7301 35.9233 32.4148 35.9886 32.0739 36.0398C31.7358 36.0909 31.402 36.1165 31.0724 36.1165ZM30.6804 32.571C31.0497 32.571 31.3466 32.4972 31.571 32.3494C31.7983 32.2017 31.9616 31.9815 32.0611 31.6889C32.1634 31.3935 32.2145 31.0241 32.2145 30.581C32.2116 30.1491 32.1563 29.8054 32.0483 29.5497C31.9432 29.2912 31.7784 29.1065 31.554 28.9957C31.3324 28.8821 31.0469 28.8253 30.6974 28.8253C30.3764 28.8253 30.1023 28.9034 29.875 29.0597C29.6506 29.2159 29.4787 29.4276 29.3594 29.6946C29.2429 29.9616 29.1832 30.2585 29.1804 30.5852C29.1832 30.929 29.2315 31.2528 29.3253 31.5568C29.4219 31.858 29.5781 32.1023 29.794 32.2898C30.0128 32.4773 30.3082 32.571 30.6804 32.571ZM37.5721 35V26.2727H38.8888V33.8665H42.8434V35H37.5721ZM44.2433 35V28.4545H45.5174V35H44.2433ZM44.8867 27.4446C44.6651 27.4446 44.4748 27.3707 44.3157 27.223C44.1594 27.0724 44.0813 26.8935 44.0813 26.6861C44.0813 26.4759 44.1594 26.2969 44.3157 26.1491C44.4748 25.9986 44.6651 25.9233 44.8867 25.9233C45.1083 25.9233 45.2972 25.9986 45.4535 26.1491C45.6126 26.2969 45.6921 26.4759 45.6921 26.6861C45.6921 26.8935 45.6126 27.0724 45.4535 27.223C45.2972 27.3707 45.1083 27.4446 44.8867 27.4446ZM48.5057 31.1136V35H47.2315V28.4545H48.4545V29.5199H48.5355C48.6861 29.1733 48.9219 28.8949 49.2429 28.6847C49.5668 28.4744 49.9744 28.3693 50.4659 28.3693C50.9119 28.3693 51.3026 28.4631 51.6378 28.6506C51.973 28.8352 52.233 29.1108 52.4176 29.4773C52.6023 29.8437 52.6946 30.2969 52.6946 30.8366V35H51.4205V30.9901C51.4205 30.5156 51.2969 30.1449 51.0497 29.8778C50.8026 29.608 50.4631 29.473 50.0312 29.473C49.7358 29.473 49.473 29.5369 49.2429 29.6648C49.0156 29.7926 48.8352 29.9801 48.7017 30.2273C48.571 30.4716 48.5057 30.767 48.5057 31.1136ZM56.3082 35.1449C55.8935 35.1449 55.5185 35.0682 55.1832 34.9148C54.848 34.7585 54.5824 34.5327 54.3864 34.2372C54.1932 33.9418 54.0966 33.5795 54.0966 33.1506C54.0966 32.7812 54.1676 32.4773 54.3097 32.2386C54.4517 32 54.6435 31.8111 54.8849 31.6719C55.1264 31.5327 55.3963 31.4276 55.6946 31.3565C55.9929 31.2855 56.2969 31.2315 56.6065 31.1946C56.9986 31.1491 57.3168 31.1122 57.5611 31.0838C57.8054 31.0526 57.983 31.0028 58.0938 30.9347C58.2045 30.8665 58.2599 30.7557 58.2599 30.6023V30.5724C58.2599 30.2003 58.1548 29.9119 57.9446 29.7074C57.7372 29.5028 57.4276 29.4006 57.0156 29.4006C56.5866 29.4006 56.2486 29.4957 56.0014 29.6861C55.7571 29.8736 55.5881 30.0824 55.4943 30.3125L54.2969 30.0398C54.4389 29.642 54.6463 29.321 54.919 29.0767C55.1946 28.8295 55.5114 28.6506 55.8693 28.5398C56.2273 28.4261 56.6037 28.3693 56.9986 28.3693C57.2599 28.3693 57.5369 28.4006 57.8295 28.4631C58.125 28.5227 58.4006 28.6335 58.6562 28.7955C58.9148 28.9574 59.1264 29.1889 59.2912 29.4901C59.456 29.7884 59.5384 30.1761 59.5384 30.6534V35H58.294V34.1051H58.2429C58.1605 34.2699 58.0369 34.4318 57.8722 34.5909C57.7074 34.75 57.4957 34.8821 57.2372 34.9872C56.9787 35.0923 56.669 35.1449 56.3082 35.1449ZM56.5852 34.1222C56.9375 34.1222 57.2386 34.0526 57.4886 33.9134C57.7415 33.7741 57.9332 33.5923 58.0639 33.3679C58.1974 33.1406 58.2642 32.8977 58.2642 32.6392V31.7955C58.2188 31.8409 58.1307 31.8835 58 31.9233C57.8722 31.9602 57.7259 31.9929 57.5611 32.0213C57.3963 32.0469 57.2358 32.071 57.0795 32.0938C56.9233 32.1136 56.7926 32.1307 56.6875 32.1449C56.4403 32.1761 56.2145 32.2287 56.0099 32.3026C55.8082 32.3764 55.6463 32.483 55.5241 32.6222C55.4048 32.7585 55.3452 32.9403 55.3452 33.1676C55.3452 33.483 55.4616 33.7216 55.6946 33.8835C55.9276 34.0426 56.2244 34.1222 56.5852 34.1222Z" fill="#FEFEFE"/>
<defs>
<filter id="filter0_d_44_1712" x="2.8232" y="2.25852" width="12.4405" height="13.6371" filterUnits="userSpaceOnUse" color-interpolation-filters="sRGB">
<feFlood flood-opacity="0" result="BackgroundImageFix"/>
<feColorMatrix in="SourceAlpha" type="matrix" values="0 0 0 0 0 0 0 0 0 0 0 0 0 0 0 0 0 0 127 0" result="hardAlpha"/>
<feOffset dy="0.631858"/>
<feGaussianBlur stdDeviation="0.631858"/>
<feComposite in2="hardAlpha" operator="out"/>
<feColorMatrix type="matrix" values="0 0 0 0 0 0 0 0 0 0 0 0 0 0 0 0 0 0 0.25 0"/>
<feBlend mode="normal" in2="BackgroundImageFix" result="effect1_dropShadow_44_1712"/>
<feBlend mode="normal" in="SourceGraphic" in2="effect1_dropShadow_44_1712" result="shape"/>
</filter>
</defs>
</svg>
