<svg width="100" height="45" viewBox="0 0 100 45" fill="none" xmlns="http://www.w3.org/2000/svg">
<g filter="url(#filter0_d_23_1223)">
<path d="M5.82543 14L4.08728 2.89037L14 8.21918L8.94181 9.7397L5.82543 14Z" fill="#9FA8FE"/>
</g>
<mask id="path-2-inside-1_23_1223" fill="white">
<path d="M13 16.5404C13 15.6897 13.6897 15 14.5404 15H85C93.2843 15 100 21.7157 100 30C100 38.2843 93.2843 45 85 45H31.4851C21.2761 45 13 36.7239 13 26.5149V16.5404Z"/>
</mask>
<path d="M13 16.5404C13 15.6897 13.6897 15 14.5404 15H85C93.2843 15 100 21.7157 100 30C100 38.2843 93.2843 45 85 45H31.4851C21.2761 45 13 36.7239 13 26.5149V16.5404Z" fill="#9FA8FE"/>
<path d="M13 16.5404C13 15.6897 13.6897 15 14.5404 15H85C93.2843 15 100 21.7157 100 30C100 38.2843 93.2843 45 85 45H31.4851C21.2761 45 13 36.7239 13 26.5149V16.5404Z" stroke="#8A92E3" stroke-width="4" mask="url(#path-2-inside-1_23_1223)"/>
<path d="M31.1108 37.3736C30.2301 37.3736 29.4489 37.2528 28.767 37.0114C28.0881 36.7727 27.5156 36.4205 27.0497 35.9545C26.5838 35.4915 26.2301 34.9233 25.9886 34.25C25.7472 33.5767 25.6264 32.8082 25.6264 31.9446C25.6264 31.1037 25.7486 30.348 25.9929 29.6776C26.2372 29.0071 26.5923 28.4361 27.0582 27.9645C27.527 27.4901 28.0966 27.1278 28.767 26.8778C29.4375 26.6278 30.1989 26.5028 31.0511 26.5028C31.8665 26.5028 32.5852 26.6307 33.2074 26.8864C33.8295 27.142 34.3523 27.4929 34.7756 27.9389C35.2017 28.3849 35.5227 28.8963 35.7386 29.473C35.9545 30.0497 36.0625 30.6591 36.0625 31.3011C36.0625 31.75 36.0341 32.1889 35.9773 32.6179C35.9205 33.044 35.8153 33.4304 35.6619 33.777C35.5114 34.1207 35.2926 34.3963 35.0057 34.6037C34.7216 34.8082 34.3523 34.9148 33.8977 34.9233C33.6563 34.9318 33.4219 34.9034 33.1946 34.8381C32.9673 34.7727 32.7741 34.6676 32.6151 34.5227C32.456 34.375 32.3594 34.1875 32.3253 33.9602H32.2741C32.206 34.1278 32.0923 34.2841 31.9332 34.429C31.7741 34.571 31.571 34.6847 31.3239 34.7699C31.0795 34.8523 30.7955 34.8864 30.4716 34.8722C30.1136 34.858 29.7912 34.777 29.5043 34.6293C29.2173 34.4815 28.9716 34.277 28.767 34.0156C28.5653 33.7543 28.4105 33.4446 28.3026 33.0866C28.1946 32.7287 28.1406 32.331 28.1406 31.8935C28.1406 31.473 28.2017 31.0966 28.3239 30.7642C28.446 30.429 28.6122 30.1406 28.8224 29.8991C29.0355 29.6548 29.2798 29.4616 29.5554 29.3196C29.831 29.1776 30.1222 29.0881 30.429 29.0511C30.7273 29.017 31.0014 29.0256 31.2514 29.0767C31.5014 29.1278 31.7088 29.206 31.8736 29.3111C32.0412 29.4162 32.1463 29.5312 32.1889 29.6562H32.2443V29.179H33.2926V33.1335C33.2926 33.358 33.3509 33.5483 33.4673 33.7045C33.5866 33.8608 33.7557 33.9389 33.9744 33.9389C34.233 33.9389 34.4347 33.8437 34.5795 33.6534C34.7273 33.4631 34.831 33.1705 34.8906 32.7756C34.9531 32.3807 34.9844 31.875 34.9844 31.2585C34.9844 30.8267 34.9261 30.4205 34.8097 30.0398C34.696 29.6562 34.527 29.3097 34.3026 29C34.081 28.6875 33.8082 28.419 33.4844 28.1946C33.1605 27.9702 32.7912 27.7969 32.3764 27.6747C31.9645 27.5526 31.5085 27.4915 31.0085 27.4915C30.3295 27.4915 29.7259 27.5966 29.1974 27.8068C28.669 28.0142 28.223 28.3139 27.8594 28.706C27.4986 29.098 27.2244 29.5682 27.0369 30.1165C26.8523 30.6619 26.7599 31.2741 26.7599 31.9531C26.7599 32.6605 26.8551 33.2884 27.0455 33.8366C27.2358 34.3821 27.517 34.8423 27.8892 35.2173C28.2614 35.5923 28.7216 35.8764 29.2699 36.0696C29.8182 36.2656 30.4503 36.3636 31.1662 36.3636C31.4844 36.3636 31.7969 36.3352 32.1037 36.2784C32.4105 36.2244 32.6832 36.1619 32.9219 36.0909C33.1634 36.0227 33.3438 35.9673 33.4631 35.9247L33.7614 36.858C33.5852 36.9403 33.3509 37.0213 33.0582 37.1009C32.7685 37.1804 32.4531 37.2457 32.1122 37.2969C31.7741 37.348 31.4403 37.3736 31.1108 37.3736ZM30.7188 33.8281C31.0881 33.8281 31.3849 33.7543 31.6094 33.6065C31.8366 33.4588 32 33.2386 32.0994 32.946C32.2017 32.6506 32.2528 32.2812 32.2528 31.8381C32.25 31.4062 32.1946 31.0625 32.0866 30.8068C31.9815 30.5483 31.8168 30.3636 31.5923 30.2528C31.3707 30.1392 31.0852 30.0824 30.7358 30.0824C30.4148 30.0824 30.1406 30.1605 29.9134 30.3168C29.6889 30.473 29.517 30.6847 29.3977 30.9517C29.2813 31.2187 29.2216 31.5156 29.2188 31.8423C29.2216 32.1861 29.2699 32.5099 29.3636 32.8139C29.4602 33.1151 29.6165 33.3594 29.8324 33.5469C30.0511 33.7344 30.3466 33.8281 30.7188 33.8281ZM37.4698 35V28.4545H38.6928V29.5199H38.7738C38.9102 29.1591 39.1332 28.8778 39.4428 28.6761C39.7525 28.4716 40.1232 28.3693 40.555 28.3693C40.9925 28.3693 41.359 28.4716 41.6545 28.6761C41.9528 28.8807 42.1729 29.1619 42.315 29.5199H42.3832C42.5394 29.1705 42.788 28.892 43.1289 28.6847C43.4698 28.4744 43.8761 28.3693 44.3477 28.3693C44.9414 28.3693 45.4258 28.5554 45.8008 28.9276C46.1786 29.2997 46.3675 29.8608 46.3675 30.6108V35H45.0934V30.7301C45.0934 30.2869 44.9727 29.9659 44.7312 29.767C44.4897 29.5682 44.2013 29.4688 43.8661 29.4688C43.4513 29.4688 43.1289 29.5966 42.8988 29.8523C42.6687 30.1051 42.5536 30.4304 42.5536 30.8281V35H41.2837V30.6491C41.2837 30.294 41.1729 30.0085 40.9513 29.7926C40.7298 29.5767 40.4414 29.4688 40.0863 29.4688C39.8448 29.4688 39.6218 29.5327 39.4173 29.6605C39.2156 29.7855 39.0522 29.9602 38.9272 30.1847C38.805 30.4091 38.744 30.669 38.744 30.9645V35H37.4698ZM49.9801 35.1449C49.5653 35.1449 49.1903 35.0682 48.8551 34.9148C48.5199 34.7585 48.2543 34.5327 48.0582 34.2372C47.8651 33.9418 47.7685 33.5795 47.7685 33.1506C47.7685 32.7812 47.8395 32.4773 47.9815 32.2386C48.1236 32 48.3153 31.8111 48.5568 31.6719C48.7983 31.5327 49.0682 31.4276 49.3665 31.3565C49.6648 31.2855 49.9688 31.2315 50.2784 31.1946C50.6705 31.1491 50.9886 31.1122 51.233 31.0838C51.4773 31.0526 51.6548 31.0028 51.7656 30.9347C51.8764 30.8665 51.9318 30.7557 51.9318 30.6023V30.5724C51.9318 30.2003 51.8267 29.9119 51.6165 29.7074C51.4091 29.5028 51.0994 29.4006 50.6875 29.4006C50.2585 29.4006 49.9205 29.4957 49.6733 29.6861C49.429 29.8736 49.2599 30.0824 49.1662 30.3125L47.9688 30.0398C48.1108 29.642 48.3182 29.321 48.5909 29.0767C48.8665 28.8295 49.1832 28.6506 49.5412 28.5398C49.8991 28.4261 50.2756 28.3693 50.6705 28.3693C50.9318 28.3693 51.2088 28.4006 51.5014 28.4631C51.7969 28.5227 52.0724 28.6335 52.3281 28.7955C52.5866 28.9574 52.7983 29.1889 52.9631 29.4901C53.1278 29.7884 53.2102 30.1761 53.2102 30.6534V35H51.9659V34.1051H51.9148C51.8324 34.2699 51.7088 34.4318 51.544 34.5909C51.3793 34.75 51.1676 34.8821 50.9091 34.9872C50.6506 35.0923 50.3409 35.1449 49.9801 35.1449ZM50.2571 34.1222C50.6094 34.1222 50.9105 34.0526 51.1605 33.9134C51.4134 33.7741 51.6051 33.5923 51.7358 33.3679C51.8693 33.1406 51.9361 32.8977 51.9361 32.6392V31.7955C51.8906 31.8409 51.8026 31.8835 51.6719 31.9233C51.544 31.9602 51.3977 31.9929 51.233 32.0213C51.0682 32.0469 50.9077 32.071 50.7514 32.0938C50.5952 32.1136 50.4645 32.1307 50.3594 32.1449C50.1122 32.1761 49.8864 32.2287 49.6818 32.3026C49.4801 32.3764 49.3182 32.483 49.196 32.6222C49.0767 32.7585 49.017 32.9403 49.017 33.1676C49.017 33.483 49.1335 33.7216 49.3665 33.8835C49.5994 34.0426 49.8963 34.1222 50.2571 34.1222ZM54.9073 35V28.4545H56.1815V35H54.9073ZM55.5508 27.4446C55.3292 27.4446 55.1388 27.3707 54.9798 27.223C54.8235 27.0724 54.7454 26.8935 54.7454 26.6861C54.7454 26.4759 54.8235 26.2969 54.9798 26.1491C55.1388 25.9986 55.3292 25.9233 55.5508 25.9233C55.7724 25.9233 55.9613 25.9986 56.1175 26.1491C56.2766 26.2969 56.3562 26.4759 56.3562 26.6861C56.3562 26.8935 56.2766 27.0724 56.1175 27.223C55.9613 27.3707 55.7724 27.4446 55.5508 27.4446ZM62.8004 30.0526L61.6456 30.2571C61.5973 30.1094 61.5206 29.9687 61.4155 29.8352C61.3132 29.7017 61.174 29.5923 60.9979 29.5071C60.8217 29.4219 60.6016 29.3793 60.3374 29.3793C59.9766 29.3793 59.6754 29.4602 59.4339 29.6222C59.1925 29.7812 59.0717 29.9872 59.0717 30.2401C59.0717 30.4588 59.1527 30.6349 59.3146 30.7685C59.4766 30.902 59.7379 31.0114 60.0987 31.0966L61.1385 31.3352C61.7408 31.4744 62.1896 31.6889 62.4851 31.9787C62.7805 32.2685 62.9283 32.6449 62.9283 33.108C62.9283 33.5 62.8146 33.8494 62.5874 34.1562C62.3629 34.4602 62.049 34.6989 61.6456 34.8722C61.245 35.0455 60.7805 35.1321 60.2521 35.1321C59.5192 35.1321 58.9212 34.9759 58.4581 34.6634C57.995 34.348 57.7109 33.9006 57.6058 33.321L58.8374 33.1335C58.9141 33.4545 59.0717 33.6974 59.3104 33.8622C59.549 34.0241 59.8601 34.1051 60.2436 34.1051C60.6612 34.1051 60.995 34.0185 61.245 33.8452C61.495 33.669 61.62 33.4545 61.62 33.2017C61.62 32.9972 61.5433 32.8253 61.3899 32.6861C61.2393 32.5469 61.0078 32.4418 60.6953 32.3707L59.5874 32.1278C58.9766 31.9886 58.5249 31.767 58.2322 31.4631C57.9425 31.1591 57.7976 30.7741 57.7976 30.3082C57.7976 29.9219 57.9055 29.5838 58.1214 29.294C58.3374 29.0043 58.6357 28.7784 59.0163 28.6165C59.397 28.4517 59.8331 28.3693 60.3246 28.3693C61.032 28.3693 61.5888 28.5227 61.995 28.8295C62.4013 29.1335 62.6697 29.5412 62.8004 30.0526ZM65.6033 26.2727V35H64.3292V26.2727H65.6033ZM67.3175 35V28.4545H68.5916V35H67.3175ZM67.9609 27.4446C67.7393 27.4446 67.549 27.3707 67.3899 27.223C67.2337 27.0724 67.1555 26.8935 67.1555 26.6861C67.1555 26.4759 67.2337 26.2969 67.3899 26.1491C67.549 25.9986 67.7393 25.9233 67.9609 25.9233C68.1825 25.9233 68.3714 25.9986 68.5277 26.1491C68.6868 26.2969 68.7663 26.4759 68.7663 26.6861C68.7663 26.8935 68.6868 27.0724 68.5277 27.223C68.3714 27.3707 68.1825 27.4446 67.9609 27.4446ZM71.5799 31.1136V35H70.3058V28.4545H71.5288V29.5199H71.6097C71.7603 29.1733 71.9961 28.8949 72.3171 28.6847C72.641 28.4744 73.0487 28.3693 73.5401 28.3693C73.9862 28.3693 74.3768 28.4631 74.712 28.6506C75.0472 28.8352 75.3072 29.1108 75.4918 29.4773C75.6765 29.8437 75.7688 30.2969 75.7688 30.8366V35H74.4947V30.9901C74.4947 30.5156 74.3711 30.1449 74.1239 29.8778C73.8768 29.608 73.5373 29.473 73.1055 29.473C72.81 29.473 72.5472 29.5369 72.3171 29.6648C72.0898 29.7926 71.9094 29.9801 71.7759 30.2273C71.6452 30.4716 71.5799 30.767 71.5799 31.1136ZM79.3825 35.1449C78.9677 35.1449 78.5927 35.0682 78.2575 34.9148C77.9222 34.7585 77.6566 34.5327 77.4606 34.2372C77.2674 33.9418 77.1708 33.5795 77.1708 33.1506C77.1708 32.7812 77.2418 32.4773 77.3839 32.2386C77.5259 32 77.7177 31.8111 77.9592 31.6719C78.2006 31.5327 78.4705 31.4276 78.7688 31.3565C79.0671 31.2855 79.3711 31.2315 79.6808 31.1946C80.0728 31.1491 80.391 31.1122 80.6353 31.0838C80.8796 31.0526 81.0572 31.0028 81.168 30.9347C81.2788 30.8665 81.3342 30.7557 81.3342 30.6023V30.5724C81.3342 30.2003 81.229 29.9119 81.0188 29.7074C80.8114 29.5028 80.5018 29.4006 80.0898 29.4006C79.6609 29.4006 79.3228 29.4957 79.0756 29.6861C78.8313 29.8736 78.6623 30.0824 78.5685 30.3125L77.3711 30.0398C77.5131 29.642 77.7205 29.321 77.9933 29.0767C78.2688 28.8295 78.5856 28.6506 78.9435 28.5398C79.3015 28.4261 79.6779 28.3693 80.0728 28.3693C80.3342 28.3693 80.6112 28.4006 80.9038 28.4631C81.1992 28.5227 81.4748 28.6335 81.7305 28.7955C81.989 28.9574 82.2006 29.1889 82.3654 29.4901C82.5302 29.7884 82.6126 30.1761 82.6126 30.6534V35H81.3683V34.1051H81.3171C81.2347 34.2699 81.1112 34.4318 80.9464 34.5909C80.7816 34.75 80.57 34.8821 80.3114 34.9872C80.0529 35.0923 79.7433 35.1449 79.3825 35.1449ZM79.6594 34.1222C80.0117 34.1222 80.3129 34.0526 80.5629 33.9134C80.8157 33.7741 81.0075 33.5923 81.1381 33.3679C81.2717 33.1406 81.3384 32.8977 81.3384 32.6392V31.7955C81.293 31.8409 81.2049 31.8835 81.0742 31.9233C80.9464 31.9602 80.8001 31.9929 80.6353 32.0213C80.4705 32.0469 80.31 32.071 80.1538 32.0938C79.9975 32.1136 79.8668 32.1307 79.7617 32.1449C79.5146 32.1761 79.2887 32.2287 79.0842 32.3026C78.8825 32.3764 78.7205 32.483 78.5984 32.6222C78.479 32.7585 78.4194 32.9403 78.4194 33.1676C78.4194 33.483 78.5359 33.7216 78.7688 33.8835C79.0018 34.0426 79.2987 34.1222 79.6594 34.1222ZM88.9844 35V36.0824H83.4403V35H88.9844Z" fill="#FEFEFE"/>
<defs>
<filter id="filter0_d_23_1223" x="2.8232" y="2.25852" width="12.4405" height="13.6371" filterUnits="userSpaceOnUse" color-interpolation-filters="sRGB">
<feFlood flood-opacity="0" result="BackgroundImageFix"/>
<feColorMatrix in="SourceAlpha" type="matrix" values="0 0 0 0 0 0 0 0 0 0 0 0 0 0 0 0 0 0 127 0" result="hardAlpha"/>
<feOffset dy="0.631858"/>
<feGaussianBlur stdDeviation="0.631858"/>
<feComposite in2="hardAlpha" operator="out"/>
<feColorMatrix type="matrix" values="0 0 0 0 0 0 0 0 0 0 0 0 0 0 0 0 0 0 0.25 0"/>
<feBlend mode="normal" in2="BackgroundImageFix" result="effect1_dropShadow_23_1223"/>
<feBlend mode="normal" in="SourceGraphic" in2="effect1_dropShadow_23_1223" result="shape"/>
</filter>
</defs>
</svg>
